<svg viewBox="0 0 512 512" xmlns="http://www.w3.org/2000/svg" xmlns:xlink="http://www.w3.org/1999/xlink"><linearGradient id="a" gradientTransform="matrix(1 0 0 -1 0 -10886)" gradientUnits="userSpaceOnUse" x1="0" x2="512" y1="-11142" y2="-11142"><stop offset="0" stop-color="#00f1ff"/><stop offset=".231" stop-color="#00d8ff"/><stop offset=".5138" stop-color="#00c0ff"/><stop offset=".7773" stop-color="#00b2ff"/><stop offset="1" stop-color="#00adff"/></linearGradient><path d="m512 256c0 141.386719-114.613281 256-256 256s-256-114.613281-256-256 114.613281-256 256-256 256 114.613281 256 256zm0 0" fill="url(#a)"/><path d="m353.117188 243.394531c8.398437-8.300781 15.054687-18.46875 19.222656-30.007812 3.191406-8.835938 4.808594-18.117188 4.808594-27.582031 0-44.773438-36.472657-81.203126-81.308594-81.203126h-48.03125v-33.601562c0-8.285156-6.71875-15-15-15-8.285156 0-15 6.714844-15 15v33.601562h-32.714844v-33.601562c0-8.285156-6.714844-15-15-15-8.28125 0-15 6.714844-15 15v33.601562h-32.03125c-8.285156 0-15 6.714844-15 15 0 8.285157 6.714844 15 15 15h32.03125v244.367188h-32.03125c-8.285156 0-15 6.714844-15 15 0 8.28125 6.714844 15 15 15h32.03125v32.03125c0 8.285156 6.71875 15 15 15 8.285156 0 15-6.714844 15-15v-32.035156h32.714844v32.035156c0 8.285156 6.714844 15 15 15 8.28125 0 15-6.714844 15-15v-32.035156h73.390625c9.324219 0 18.75-1.359375 27.261719-3.929688 7.929687-2.394531 12.414062-10.769531 10.019531-18.699218-2.394531-7.929688-10.765625-12.414063-18.699219-10.019532-5.730469 1.734375-12.160156 2.648438-18.582031 2.648438h-136.105469v-244.363282h110.746094c28.292968 0 51.308594 22.96875 51.308594 51.203126 0 5.980468-1.015626 11.832031-3.027344 17.390624-7.300782 20.222657-26.703125 33.808594-48.28125 33.808594-.636719 0-1.261719.054688-1.878906.128906h-65.855469c-8.285157 0-15 6.71875-15 15 0 8.285157 6.714843 15 15 15h92.90625c30.839843 0 55.925781 25.164063 55.925781 56.09375 0 3.3125-.246094 6.539063-.730469 9.589844-1.300781 8.179688 4.273438 15.867188 12.457031 17.171875.796876.125 1.589844.1875 2.375.1875 7.246094 0 13.621094-5.261719 14.796876-12.644531.730468-4.605469 1.101562-9.417969 1.101562-14.304688 0-36.101562-22.300781-67.0625-53.820312-79.832031zm0 0" fill="#fff"/></svg>